<svg width="361.7599853515625px" height="202.439990234375px" xmlns="http://www.w3.org/2000/svg" viewBox="69.12000732421876 -26.219995117187494 361.7599853515625 202.439990234375" style="background: rgba(255, 255, 255, 0) none repeat scroll 0% 0%;" preserveAspectRatio="xMidYMid"><defs><filter id="editing-extrusion" x="-100%" y="-100%" width="300%" height="300%"><feFlood result="color1" flood-color="#919191"></feFlood><feConvolveMatrix order="2,2" divisor="1" kernelMatrix="1 0 0 1" in="SourceAlpha" result="extrude"></feConvolveMatrix><feComposite in="color1" in2="extrude" result="comp-extrude" operator="in"></feComposite><feOffset dx="1" dy="1" in="comp-extrude" result="offset-extrude"></feOffset><feMerge><feMergeNode in="offset-extrude"></feMergeNode><feMergeNode in="SourceGraphic"></feMergeNode></feMerge></filter></defs><g filter="url(#editing-extrusion)"><g transform="translate(142.47999954223633, 110.77999591827393)"><path d="M29.30-55.65L29.30 15.91L6.66 15.91L6.66-55.65L29.30-55.65ZM23.83-50.84L11.99-50.84L11.99-48.47L16.65-48.47L16.65-45.88L11.91-45.88L11.91-43.51L23.83-43.51L23.83-45.88L19.09-45.88L19.09-48.47L23.83-48.47L23.83-50.84ZM19.09-41.59L11.91-41.59L11.91-34.19L23.83-34.19L23.83-36.63L19.09-36.63L19.09-41.59ZM16.65-39.22L16.65-36.63L14.28-36.63L14.28-39.22L16.65-39.22ZM23.83-32.26L11.91-32.26L11.91-29.90L16.65-29.90L16.65-27.23L11.91-27.23L11.91-24.86L19.09-24.86L19.09-29.90L23.83-29.90L23.83-32.26ZM23.83-27.97L21.46-27.97L21.46-23.24L11.91-23.24L11.91-20.79L23.83-20.79L23.83-27.97ZM23.83-19.24L16.65-19.24L16.65-15.24L19.09-15.24L19.09-16.87L21.46-16.87L21.46-13.47L14.28-13.47L14.28-19.24L11.91-19.24L11.91-11.17L23.83-11.17L23.83-19.24ZM23.83-6.88L11.91-6.88L11.91 1.26L23.83 1.26L23.83-6.88ZM21.46-4.51L21.46-1.11L14.28-1.11L14.28-4.51L21.46-4.51ZM23.83 2.89L11.91 2.89L11.91 5.25L16.95 5.25L11.91 8.58L11.91 10.95L23.83 10.95L23.83 8.58L16.50 8.58L21.53 5.25L23.83 5.25L23.83 2.89ZM65.12-55.65L65.12 15.91L42.48 15.91L42.48-55.65L65.12-55.65ZM59.64-50.84L47.80-50.84L47.80-48.47L52.47-48.47L52.47-45.88L47.73-45.88L47.73-43.51L59.64-43.51L59.64-45.88L54.91-45.88L54.91-48.47L59.64-48.47L59.64-50.84ZM54.91-41.59L47.73-41.59L47.73-34.19L59.64-34.19L59.64-36.63L54.91-36.63L54.91-41.59ZM52.47-39.22L52.47-36.63L50.10-36.63L50.10-39.22L52.47-39.22ZM59.64-32.26L47.73-32.26L47.73-29.90L52.47-29.90L52.47-27.23L47.73-27.23L47.73-24.86L54.91-24.86L54.91-29.90L59.64-29.90L59.64-32.26ZM59.64-27.97L57.28-27.97L57.28-23.24L47.73-23.24L47.73-20.79L59.64-20.79L59.64-27.97ZM59.64-19.24L52.47-19.24L52.47-15.24L54.91-15.24L54.91-16.87L57.28-16.87L57.28-13.47L50.10-13.47L50.10-19.24L47.73-19.24L47.73-11.17L59.64-11.17L59.64-19.24ZM59.64-6.88L47.73-6.88L47.73 1.26L59.64 1.26L59.64-6.88ZM57.28-4.51L57.28-1.11L50.10-1.11L50.10-4.51L57.28-4.51ZM59.64 2.89L47.73 2.89L47.73 5.25L52.76 5.25L47.73 8.58L47.73 10.95L59.64 10.95L59.64 8.58L52.32 8.58L57.35 5.25L59.64 5.25L59.64 2.89ZM100.94-55.65L100.94 15.91L78.29 15.91L78.29-55.65L100.94-55.65ZM95.46-50.84L83.62-50.84L83.62-48.47L88.28-48.47L88.28-45.88L83.55-45.88L83.55-43.51L95.46-43.51L95.46-45.88L90.72-45.88L90.72-48.47L95.46-48.47L95.46-50.84ZM90.72-41.59L83.55-41.59L83.55-34.19L95.46-34.19L95.46-36.63L90.72-36.63L90.72-41.59ZM88.28-39.22L88.28-36.63L85.91-36.63L85.91-39.22L88.28-39.22ZM95.46-32.26L83.55-32.26L83.55-29.90L88.28-29.90L88.28-27.23L83.55-27.23L83.55-24.86L90.72-24.86L90.72-29.90L95.46-29.90L95.46-32.26ZM95.46-27.97L93.09-27.97L93.09-23.24L83.55-23.24L83.55-20.79L95.46-20.79L95.46-27.97ZM95.46-19.24L88.28-19.24L88.28-15.24L90.72-15.24L90.72-16.87L93.09-16.87L93.09-13.47L85.91-13.47L85.91-19.24L83.55-19.24L83.55-11.17L95.46-11.17L95.46-19.24ZM95.46-6.88L83.55-6.88L83.55 1.26L95.46 1.26L95.46-6.88ZM93.09-4.51L93.09-1.11L85.91-1.11L85.91-4.51L93.09-4.51ZM95.46 2.89L83.55 2.89L83.55 5.25L88.58 5.25L83.55 8.58L83.55 10.95L95.46 10.95L95.46 8.58L88.13 8.58L93.17 5.25L95.46 5.25L95.46 2.89ZM136.75-55.65L136.75 15.91L114.11 15.91L114.11-55.65L136.75-55.65ZM131.28-50.84L119.44-50.84L119.44-48.47L124.10-48.47L124.10-45.88L119.36-45.88L119.36-43.51L131.28-43.51L131.28-45.88L126.54-45.88L126.54-48.47L131.28-48.47L131.28-50.84ZM126.54-41.59L119.36-41.59L119.36-34.19L131.28-34.19L131.28-36.63L126.54-36.63L126.54-41.59ZM124.10-39.22L124.10-36.63L121.73-36.63L121.73-39.22L124.10-39.22ZM131.28-32.26L119.36-32.26L119.36-29.90L124.10-29.90L124.10-27.23L119.36-27.23L119.36-24.86L126.54-24.86L126.54-29.90L131.28-29.90L131.28-32.26ZM131.28-27.97L128.91-27.97L128.91-23.24L119.36-23.24L119.36-20.79L131.28-20.79L131.28-27.97ZM131.28-19.24L124.10-19.24L124.10-15.24L126.54-15.24L126.54-16.87L128.91-16.87L128.91-13.47L121.73-13.47L121.73-19.24L119.36-19.24L119.36-11.17L131.28-11.17L131.28-19.24ZM131.28-6.88L119.36-6.88L119.36 1.26L131.28 1.26L131.28-6.88ZM128.91-4.51L128.91-1.11L121.73-1.11L121.73-4.51L128.91-4.51ZM131.28 2.89L119.36 2.89L119.36 5.25L124.39 5.25L119.36 8.58L119.36 10.95L131.28 10.95L131.28 8.58L123.95 8.58L128.98 5.25L131.28 5.25L131.28 2.89ZM172.57-55.65L172.57 15.91L149.92 15.91L149.92-55.65L172.57-55.65ZM167.09-50.84L155.25-50.84L155.25-48.47L159.91-48.47L159.91-45.88L155.18-45.88L155.18-43.51L167.09-43.51L167.09-45.88L162.36-45.88L162.36-48.47L167.09-48.47L167.09-50.84ZM162.36-41.59L155.18-41.59L155.18-34.19L167.09-34.19L167.09-36.63L162.36-36.63L162.36-41.59ZM159.91-39.22L159.91-36.63L157.55-36.63L157.55-39.22L159.91-39.22ZM167.09-32.26L155.18-32.26L155.18-29.90L159.91-29.90L159.91-27.23L155.18-27.23L155.18-24.86L162.36-24.86L162.36-29.90L167.09-29.90L167.09-32.26ZM167.09-27.97L164.72-27.97L164.72-23.24L155.18-23.24L155.18-20.79L167.09-20.79L167.09-27.97ZM167.09-19.24L159.91-19.24L159.91-15.24L162.36-15.24L162.36-16.87L164.72-16.87L164.72-13.47L157.55-13.47L157.55-19.24L155.18-19.24L155.18-11.17L167.09-11.17L167.09-19.24ZM167.09-6.88L155.18-6.88L155.18 1.26L167.09 1.26L167.09-6.88ZM164.72-4.51L164.72-1.11L157.55-1.11L157.55-4.51L164.72-4.51ZM167.09 2.89L155.18 2.89L155.18 5.25L160.21 5.25L155.18 8.58L155.18 10.95L167.09 10.95L167.09 8.58L159.77 8.58L164.80 5.25L167.09 5.25L167.09 2.89ZM208.38-55.65L208.38 15.91L185.74 15.91L185.74-55.65L208.38-55.65ZM202.91-50.84L191.07-50.84L191.07-48.47L195.73-48.47L195.73-45.88L190.99-45.88L190.99-43.51L202.91-43.51L202.91-45.88L198.17-45.88L198.17-48.47L202.91-48.47L202.91-50.84ZM198.17-41.59L190.99-41.59L190.99-34.19L202.91-34.19L202.91-36.63L198.17-36.63L198.17-41.59ZM195.73-39.22L195.73-36.63L193.36-36.63L193.36-39.22L195.73-39.22ZM202.91-32.26L190.99-32.26L190.99-29.90L195.73-29.90L195.73-27.23L190.99-27.23L190.99-24.86L198.17-24.86L198.17-29.90L202.91-29.90L202.91-32.26ZM202.91-27.97L200.54-27.97L200.54-23.24L190.99-23.24L190.99-20.79L202.91-20.79L202.91-27.97ZM202.91-19.24L195.73-19.24L195.73-15.24L198.17-15.24L198.17-16.87L200.54-16.87L200.54-13.47L193.36-13.47L193.36-19.24L190.99-19.24L190.99-11.17L202.91-11.17L202.91-19.24ZM202.91-6.88L190.99-6.88L190.99 1.26L202.91 1.26L202.91-6.88ZM200.54-4.51L200.54-1.11L193.36-1.11L193.36-4.51L200.54-4.51ZM202.91 2.89L190.99 2.89L190.99 5.25L196.03 5.25L190.99 8.58L190.99 10.95L202.91 10.95L202.91 8.58L195.58 8.58L200.61 5.25L202.91 5.25L202.91 2.89Z" fill="#000000"></path></g></g><style>text {
  font-size: 64px;
  font-family: Arial Black;
  dominant-baseline: central;
  text-anchor: middle;
}</style></svg>